<svg xmlns="http://www.w3.org/2000/svg" xmlns:xlink="http://www.w3.org/1999/xlink" width="80" height="80" viewBox="0 0 80 80"><defs><clipPath id="a"><circle cx="40" cy="40" r="40" fill="none"/></clipPath></defs><path d="M40,0A40,40,0,1,1,0,40,40,40,0,0,1,40,0Z" fill="#ddd"/><g clip-path="url(#a)"><path d="M25.909,41.036a14.6,14.6,0,0,1,.7,2.168,25.353,25.353,0,0,0,1.2,2.483c.87,2.714,14.331,3.481,17.6,5.425C51.938,55.869,53.686,62.9,53.6,64.793H-16.5c-.123-1.933,1.108-8.157,8.094-13.681C-6.135,49,8.579,49.7,10.741,45.781c.99-1.092,1.416-3.119,1.857-4.7a9.778,9.778,0,0,1-1.823-.958c-3.428-2.312-4.675-6.6-5.207-10.649-2.2-.228-3.351-3.027-3.58-5.029-.264-2.312.59-6.251,3.491-5.912.016-.11.033-.218.05-.328C1.043,3.941,8.549-1.152,17.89.214c5.058.739,12.461,5.03,16.2.528.28,3.132-1.28,7.032-2.494,8.011,1.322.693.962,7.692,1.286,9.783,2.863-.211,3.631,3.686,3.3,6.014-.264,1.865-1.354,4.4-3.3,4.859C32.4,33.419,31.2,37.663,27.836,40a17.5,17.5,0,0,1-1.928,1.034" transform="translate(21.515 15.004)" fill="#9f9f9f"/></g></svg>